<svg width="1016" height="635" viewBox="0 0 1016 635" fill="none" xmlns="http://www.w3.org/2000/svg">
<g filter="url(#filter0_d_181:202)">
<g filter="url(#filter1_f_181:202)">
<ellipse cx="508.5" cy="586" rx="452.5" ry="5" fill="black"/>
</g>
<path d="M103 28C103 13.0883 115.088 1 130 1H890C904.912 1 917 13.0883 917 28V550C917 551.657 915.657 553 914 553H106C104.343 553 103 551.657 103 550V28Z" fill="#1A202C" stroke="#4A5568" stroke-width="2"/>
<path d="M107 27C107 14.8497 116.85 5 129 5H891C903.15 5 913 14.8497 913 27V533H107V27Z" fill="black"/>
<path d="M468.173 535.545V545H469.816V538.491H469.904L472.517 544.972H473.745L476.358 538.505H476.445V545H478.089V535.545H475.993L473.186 542.396H473.075L470.269 535.545H468.173ZM481.921 545.143C483.033 545.143 483.698 544.621 484.003 544.026H484.058V545H485.665V540.254C485.665 538.38 484.137 537.817 482.784 537.817C481.293 537.817 480.148 538.482 479.779 539.774L481.339 539.996C481.505 539.511 481.976 539.096 482.793 539.096C483.569 539.096 483.993 539.493 483.993 540.19V540.217C483.993 540.697 483.49 540.721 482.239 540.854C480.863 541.002 479.548 541.413 479.548 543.01C479.548 544.404 480.568 545.143 481.921 545.143ZM482.355 543.915C481.657 543.915 481.159 543.597 481.159 542.983C481.159 542.341 481.718 542.073 482.465 541.967C482.904 541.907 483.781 541.796 483.998 541.621V542.456C483.998 543.246 483.361 543.915 482.355 543.915ZM490.438 545.138C492.22 545.138 493.356 544.081 493.476 542.576H491.878C491.735 543.338 491.186 543.777 490.452 543.777C489.409 543.777 488.735 542.904 488.735 541.455C488.735 540.023 489.422 539.165 490.452 539.165C491.255 539.165 491.749 539.682 491.878 540.365H493.476C493.36 538.828 492.16 537.817 490.429 537.817C488.351 537.817 487.04 539.317 487.04 541.482C487.04 543.629 488.319 545.138 490.438 545.138ZM494.922 545H496.565V543.883H496.662C496.925 544.4 497.475 545.125 498.693 545.125C500.365 545.125 501.616 543.8 501.616 541.464C501.616 539.1 500.328 537.817 498.689 537.817C497.438 537.817 496.916 538.569 496.662 539.082H496.593V535.545H494.922V545ZM496.561 541.455C496.561 540.079 497.152 539.188 498.227 539.188C499.34 539.188 499.912 540.134 499.912 541.455C499.912 542.784 499.331 543.754 498.227 543.754C497.161 543.754 496.561 542.83 496.561 541.455ZM506.129 545.138C508.207 545.138 509.527 543.675 509.527 541.482C509.527 539.285 508.207 537.817 506.129 537.817C504.052 537.817 502.732 539.285 502.732 541.482C502.732 543.675 504.052 545.138 506.129 545.138ZM506.139 543.8C504.989 543.8 504.426 542.775 504.426 541.478C504.426 540.18 504.989 539.142 506.139 539.142C507.27 539.142 507.833 540.18 507.833 541.478C507.833 542.775 507.27 543.8 506.139 543.8ZM514.039 545.138C516.116 545.138 517.436 543.675 517.436 541.482C517.436 539.285 516.116 537.817 514.039 537.817C511.961 537.817 510.641 539.285 510.641 541.482C510.641 543.675 511.961 545.138 514.039 545.138ZM514.048 543.8C512.898 543.8 512.335 542.775 512.335 541.478C512.335 540.18 512.898 539.142 514.048 539.142C515.179 539.142 515.742 540.18 515.742 541.478C515.742 542.775 515.179 543.8 514.048 543.8ZM518.855 545H520.526V542.618L521.135 541.967L523.305 545H525.304L522.396 540.97L525.142 537.909H523.19L520.641 540.757H520.526V535.545H518.855V545ZM529.555 545H531.267V541.805H533.077C535.261 541.805 536.433 540.494 536.433 538.675C536.433 536.87 535.274 535.545 533.1 535.545H529.555V545ZM531.267 540.397V536.977H532.837C534.12 536.977 534.688 537.669 534.688 538.675C534.688 539.682 534.12 540.397 532.846 540.397H531.267ZM537.847 545H539.518V540.831C539.518 539.931 540.197 539.294 541.115 539.294C541.397 539.294 541.748 539.345 541.891 539.391V537.854C541.739 537.826 541.475 537.808 541.291 537.808C540.478 537.808 539.8 538.269 539.541 539.091H539.467V537.909H537.847V545ZM545.802 545.138C547.88 545.138 549.2 543.675 549.2 541.482C549.2 539.285 547.88 537.817 545.802 537.817C543.725 537.817 542.405 539.285 542.405 541.482C542.405 543.675 543.725 545.138 545.802 545.138ZM545.812 543.8C544.662 543.8 544.099 542.775 544.099 541.478C544.099 540.18 544.662 539.142 545.812 539.142C546.943 539.142 547.506 540.18 547.506 541.478C547.506 542.775 546.943 543.8 545.812 543.8Z" fill="#A0AEC0"/>
<path d="M4 552C4 550.895 4.89543 550 6 550H1010C1011.1 550 1012 550.895 1012 552V568H4V552Z" fill="#A3ACB1"/>
<path d="M4 552C4 550.895 4.89543 550 6 550H1010C1011.1 550 1012 550.895 1012 552V568H4V552Z" fill="url(#paint0_linear_181:202)"/>
<path d="M4 568H1012L991.646 572.105C965.613 577.355 939.123 580 912.566 580H101.909C72.724 580 43.6267 576.806 15.1367 570.475L4 568Z" fill="#647279"/>
<path d="M4 568H1012L991.646 572.105C965.613 577.355 939.123 580 912.566 580H101.909C72.724 580 43.6267 576.806 15.1367 570.475L4 568Z" fill="url(#paint1_linear_181:202)"/>
<path fill-rule="evenodd" clip-rule="evenodd" d="M425.033 550C425.547 557.818 432.052 564 440 564H577C584.948 564 591.453 557.818 591.967 550H425.033Z" fill="#96A1A8"/>
<path fill-rule="evenodd" clip-rule="evenodd" d="M425.033 550C425.547 557.818 432.052 564 440 564H577C584.948 564 591.453 557.818 591.967 550H425.033Z" fill="url(#paint2_linear_181:202)"/>
</g>
<defs>
<filter id="filter0_d_181:202" x="0" y="0" width="1016" height="599" filterUnits="userSpaceOnUse" color-interpolation-filters="sRGB">
<feFlood flood-opacity="0" result="BackgroundImageFix"/>
<feColorMatrix in="SourceAlpha" type="matrix" values="0 0 0 0 0 0 0 0 0 0 0 0 0 0 0 0 0 0 127 0" result="hardAlpha"/>
<feOffset dy="4"/>
<feGaussianBlur stdDeviation="2"/>
<feComposite in2="hardAlpha" operator="out"/>
<feColorMatrix type="matrix" values="0 0 0 0 0 0 0 0 0 0 0 0 0 0 0 0 0 0 0.25 0"/>
<feBlend mode="normal" in2="BackgroundImageFix" result="effect1_dropShadow_181:202"/>
<feBlend mode="normal" in="SourceGraphic" in2="effect1_dropShadow_181:202" result="shape"/>
</filter>
<filter id="filter1_f_181:202" x="12" y="537" width="993" height="98" filterUnits="userSpaceOnUse" color-interpolation-filters="sRGB">
<feFlood flood-opacity="0" result="BackgroundImageFix"/>
<feBlend mode="normal" in="SourceGraphic" in2="BackgroundImageFix" result="shape"/>
<feGaussianBlur stdDeviation="22" result="effect1_foregroundBlur_181:202"/>
</filter>
<linearGradient id="paint0_linear_181:202" x1="4" y1="559" x2="1012" y2="559" gradientUnits="userSpaceOnUse">
<stop stop-color="#0D1012"/>
<stop offset="0.0295345" stop-color="#CAD4DB"/>
<stop offset="0.0625" stop-color="#242729"/>
<stop offset="0.133609" stop-color="#A3ACB1"/>
<stop offset="0.865967" stop-color="#A3ACB1"/>
<stop offset="0.941937" stop-color="#242729"/>
<stop offset="0.971275" stop-color="#CAD4DB"/>
<stop offset="0.996436" stop-color="#0D1012"/>
</linearGradient>
<linearGradient id="paint1_linear_181:202" x1="508" y1="568" x2="508" y2="580" gradientUnits="userSpaceOnUse">
<stop stop-color="#7A7F83"/>
<stop offset="1" stop-color="#0B0B0E"/>
</linearGradient>
<linearGradient id="paint2_linear_181:202" x1="441.5" y1="558.5" x2="578.5" y2="558.5" gradientUnits="userSpaceOnUse">
<stop stop-color="#3C3C3C"/>
<stop offset="0.317518" stop-color="#3C3C3C" stop-opacity="0"/>
<stop offset="0.660584" stop-color="#3C3C3C" stop-opacity="0"/>
<stop offset="1" stop-color="#444444"/>
</linearGradient>
</defs>
</svg>
